<svg width="42" height="33" viewBox="0 0 42 33" fill="none" xmlns="http://www.w3.org/2000/svg">
<path fill-rule="evenodd" clip-rule="evenodd" d="M41.6719 13.1484H41.3438L39.7031 12.1172L38.7188 11.8594L37.0781 10.8281L36.0938 10.5703L35.4375 10.0547L33.1406 9.02344L32.4844 8.50781L32.8125 8.25V7.47656L32.1562 6.96094L30.1875 6.1875L28.5469 5.15625L27.5625 4.89844L26.9062 4.38281H26.5781L24.9375 3.35156L23.9531 3.09375L20.6719 1.28906H18.375L18.0469 1.54688H16.4062L16.0781 1.80469H14.4375L14.1094 2.0625H12.4688L12.1406 2.32031H10.5L10.1719 2.57812H8.53125L8.20312 2.83594H6.5625L6.23438 3.09375L2.95312 3.35156L1.64062 4.125V4.64062L1.3125 4.89844V8.25L2.29688 9.28125L3.28125 9.53906L3.9375 10.0547L3.60938 10.3125V13.9219L3.9375 14.1797V14.6953L4.92188 15.4688L5.90625 15.7266L7.54688 16.7578L6.5625 17.5312L5.25 18.0469L4.26562 18.8203L2.95312 19.3359L1.96875 20.1094H1.64062L0 21.1406V22.4297L0.328125 22.6875V23.4609L0.65625 23.7188V25.7812L0.328125 26.0391V26.8125L0 27.0703V28.6172H1.3125L1.64062 28.875H2.95312L3.28125 29.1328H4.92188L5.25 29.3906H6.5625L6.89062 29.6484H8.53125L8.85938 29.9062H10.5L10.8281 30.1641H12.1406L12.4688 30.4219H14.1094L14.4375 30.6797H15.75L16.0781 30.9375H17.7188L18.0469 31.1953H19.3594L19.6875 31.4531H22.3125L23.2969 30.6797L25.5938 29.6484L26.5781 28.875H26.9062L28.875 27.5859L31.1719 26.5547L34.4531 24.4922L36.75 23.4609L37.7344 22.6875L38.0625 20.625L38.3906 20.3672L41.6719 20.1094V18.5625L41.3438 18.3047V17.2734L41.0156 17.0156V15.7266L41.3438 15.4688V14.6953L41.6719 14.4375V13.1484ZM1.64062 22.6875L1.96875 22.4297H3.60938L3.9375 22.6875H5.57812L5.90625 22.9453H7.21875L7.54688 23.2031L11.1562 23.4609L11.4844 23.7188L14.7656 23.9766L15.0938 24.2344H16.4062L16.7344 24.4922H18.375L18.7031 24.75H20.0156L20.3438 25.0078H21L21.6562 25.5234V30.1641L21.3281 30.4219H20.3438L20.0156 30.1641H18.375L18.0469 29.9062L14.7656 29.6484L14.4375 29.3906H13.125L12.7969 29.1328H11.1562L10.8281 28.875H9.1875L8.85938 28.6172L5.57812 28.3594L5.25 28.1016H3.9375L3.60938 27.8438H1.96875L1.64062 27.5859V26.5547L1.96875 26.2969V23.4609L1.64062 23.2031V22.6875ZM36.4219 21.1406V21.9141L35.4375 22.6875H35.1094L34.125 23.4609H33.7969L33.1406 23.9766L31.8281 24.4922L30.8438 25.2656L28.5469 26.2969L27.5625 27.0703L26.25 27.5859L25.2656 28.3594H24.9375L23.2969 29.3906L22.9688 29.1328V25.0078L22.6406 24.75V24.2344L22.9688 23.9766H23.2969L25.2656 22.6875H25.5938L26.9062 21.9141H27.8906L28.2188 21.6562H29.8594L30.1875 21.3984H31.8281L32.1562 21.1406H33.7969L34.125 20.8828H36.0938L36.4219 21.1406ZM2.625 21.1406L3.28125 20.625L4.59375 20.1094L5.57812 19.3359L6.89062 18.8203L7.875 18.0469H8.20312L8.85938 17.5312H9.51562L10.1719 18.0469H10.5L12.1406 19.0781L13.125 19.3359L15.75 20.8828L16.7344 21.1406L19.3594 22.6875H21.6562L21.9844 22.4297L22.6406 22.6875L21 23.7188H19.0312L18.7031 23.4609L15.4219 23.2031L15.0938 22.9453H13.7812L13.4531 22.6875H11.8125L11.4844 22.4297H10.1719L9.84375 22.1719H8.20312L7.875 21.9141H6.5625L6.23438 21.6562H4.59375L4.26562 21.3984H2.95312L2.625 21.1406ZM40.0312 14.6953L39.7031 15.2109V17.5312L40.0312 17.7891V18.8203L39.375 19.3359H37.7344L37.4062 19.5938H35.7656L35.4375 19.8516H33.7969L33.4688 20.1094H31.5L31.1719 20.3672H29.5312L29.2031 20.625H27.5625L27.2344 20.8828H25.5938L25.2656 21.1406H23.625L23.2969 21.3984H21.3281L21 21.6562H20.3438L20.0156 21.3984V17.2734L20.6719 16.7578H22.3125L22.6406 16.5H24.2812L24.6094 16.2422H26.25L26.5781 15.9844H28.2188L28.5469 15.7266H30.1875L30.5156 15.4688H32.4844L32.8125 15.2109H34.4531L34.7812 14.9531H36.4219L36.75 14.6953H38.3906L38.7188 14.4375H39.7031L40.0312 14.6953ZM4.92188 11.0859L5.25 10.8281L6.23438 11.0859L6.89062 11.6016L7.875 11.8594L8.53125 12.375H8.85938L11.4844 13.9219L12.4688 14.1797L14.1094 15.2109H17.0625L18.375 15.7266L19.0312 16.2422L18.7031 16.5V20.3672L18.375 20.625L17.0625 20.1094L14.4375 18.5625L13.4531 18.3047L11.8125 17.2734L10.8281 17.0156L8.20312 15.4688L6.23438 14.6953L5.25 13.9219V13.4062L4.92188 13.1484V11.0859ZM38.7188 13.1484L37.7344 13.6641H36.0938L35.7656 13.9219H34.125L33.7969 14.1797H32.1562L31.8281 14.4375H30.1875L29.8594 14.6953H28.2188L27.8906 14.9531H25.9219L25.5938 15.2109H23.9531L23.625 15.4688H21.9844L21.6562 15.7266H21L19.3594 14.9531L19.6875 14.6953H21L21.3281 14.4375H22.9688L23.2969 14.1797H24.9375L25.2656 13.9219H26.9062L27.2344 13.6641H28.875L29.2031 13.4062H31.1719L31.5 13.1484H32.4844L32.8125 12.8906V12.1172L32.1562 11.3438V10.3125L32.4844 10.0547L38.7188 13.1484ZM30.8438 8.76562V11.6016L31.1719 11.8594L30.5156 12.375H28.875L28.5469 12.6328H26.9062L26.5781 12.8906H24.6094L24.2812 13.1484H22.6406L22.3125 13.4062H20.6719L20.3438 13.6641H18.7031L18.375 13.9219H16.4062L16.0781 14.1797H15.0938L14.7656 13.9219V11.0859L15.75 10.3125H17.7188L18.0469 10.0547H19.6875L20.0156 9.79688H21.6562L21.9844 9.53906H23.625L23.9531 9.28125H25.5938L25.9219 9.02344H27.8906L28.2188 8.76562H29.8594L30.1875 8.50781L30.8438 8.76562ZM2.95312 4.89844L3.60938 4.64062L4.26562 5.15625L6.23438 5.92969L8.85938 7.47656L9.84375 7.73438L12.4688 9.28125L13.4531 9.53906L13.7812 9.79688V10.3125L13.4531 10.5703V12.8906L13.125 13.1484L11.8125 12.6328L9.1875 11.0859L8.20312 10.8281L5.57812 9.28125L3.60938 8.50781L2.625 7.47656V5.41406L2.95312 4.89844ZM29.5312 7.47656L29.2031 7.73438H27.5625L27.2344 7.99219H25.2656L24.9375 8.25H23.2969L22.9688 8.50781H21.3281L21 8.76562H19.3594L19.0312 9.02344L15.4219 9.28125L12.1406 7.47656L11.1562 7.21875L9.51562 6.1875L8.53125 5.92969L5.90625 4.38281L6.89062 3.86719H8.53125L8.85938 3.60938L12.7969 3.35156L13.125 3.09375H14.7656L15.0938 2.83594H16.7344L17.0625 2.57812H18.7031L19.0312 2.32031H20.0156L20.6719 2.83594L22.6406 3.60938L25.2656 5.15625L26.25 5.41406L27.8906 6.44531L28.875 6.70312L29.5312 7.21875V7.47656Z" fill="black"/>
</svg>
